<?xml version="1.0" encoding="utf-8" standalone="no"?>
<!DOCTYPE svg PUBLIC "-//W3C//DTD SVG 1.1//EN"
  "http://www.w3.org/Graphics/SVG/1.1/DTD/svg11.dtd">
<svg xmlns:xlink="http://www.w3.org/1999/xlink" width="907.2pt" height="396pt" viewBox="0 0 907.2 396" xmlns="http://www.w3.org/2000/svg" version="1.1">
 <metadata>
  <rdf:RDF xmlns:dc="http://purl.org/dc/elements/1.1/" xmlns:cc="http://creativecommons.org/ns#" xmlns:rdf="http://www.w3.org/1999/02/22-rdf-syntax-ns#">
   <cc:Work>
    <dc:type rdf:resource="http://purl.org/dc/dcmitype/StillImage"/>
    <dc:format>image/svg+xml</dc:format>
    <dc:creator>
     <cc:Agent>
      <dc:title>Matplotlib v3.10.9, https://matplotlib.org/</dc:title>
     </cc:Agent>
    </dc:creator>
   </cc:Work>
  </rdf:RDF>
 </metadata>
 <defs>
  <style type="text/css">*{stroke-linejoin: round; stroke-linecap: butt}</style>
 </defs>
 <g id="figure_1">
  <g id="patch_1">
   <path d="M 0 396
L 907.2 396
L 907.2 0
L 0 0
z
" style="fill: #ffffff"/>
  </g>
  <g id="axes_1">
   <g id="patch_2">
    <path d="M 38.1024 150.48
L 179.6256 150.48
Q 190.512 150.48 190.512 145.728
L 190.512 99.792
Q 190.512 95.04 179.6256 95.04
L 38.1024 95.04
Q 27.216 95.04 27.216 99.792
L 27.216 145.728
Q 27.216 150.48 38.1024 150.48
z
" clip-path="url(#p7422ce4924)" style="fill: #edf3f8; stroke: #3576a8; stroke-width: 1.1; stroke-linejoin: miter"/>
   </g>
   <g id="patch_3">
    <path d="M 255.8304 150.48
L 415.4976 150.48
Q 426.384 150.48 426.384 145.728
L 426.384 99.792
Q 426.384 95.04 415.4976 95.04
L 255.8304 95.04
Q 244.944 95.04 244.944 99.792
L 244.944 145.728
Q 244.944 150.48 255.8304 150.48
z
" clip-path="url(#p7422ce4924)" style="fill: #ffffff; stroke: #cbd5df; stroke-width: 1.1; stroke-linejoin: miter"/>
   </g>
   <g id="patch_4">
    <path d="M 191.512002 122.76
Q 217.727402 122.76 242.601161 122.76
" clip-path="url(#p7422ce4924)" style="fill: none; stroke: #7d8e9e; stroke-width: 1.2; stroke-linecap: round"/>
    <path d="M 237.801161 120.36
L 242.601161 122.76
L 237.801161 125.16
z
" clip-path="url(#p7422ce4924)" style="fill: #7d8e9e; stroke: #7d8e9e; stroke-width: 1.2; stroke-linecap: round"/>
   </g>
   <g id="patch_5">
    <path d="M 491.7024 146.52
L 551.5776 146.52
Q 562.464 146.52 562.464 141.768
L 562.464 107.712
Q 562.464 102.96 551.5776 102.96
L 491.7024 102.96
Q 480.816 102.96 480.816 107.712
L 480.816 141.768
Q 480.816 146.52 491.7024 146.52
z
" clip-path="url(#p7422ce4924)" style="fill: #e9e2f4; stroke: #7861a8; stroke-width: 1.1; stroke-linejoin: miter"/>
   </g>
   <g id="patch_6">
    <path d="M 591.4944 146.52
L 651.3696 146.52
Q 662.256 146.52 662.256 141.768
L 662.256 107.712
Q 662.256 102.96 651.3696 102.96
L 591.4944 102.96
Q 580.608 102.96 580.608 107.712
L 580.608 141.768
Q 580.608 146.52 591.4944 146.52
z
" clip-path="url(#p7422ce4924)" style="fill: #e9e2f4; stroke: #7861a8; stroke-width: 1.1; stroke-linejoin: miter"/>
   </g>
   <g id="patch_7">
    <path d="M 691.2864 146.52
L 751.1616 146.52
Q 762.048 146.52 762.048 141.768
L 762.048 107.712
Q 762.048 102.96 751.1616 102.96
L 691.2864 102.96
Q 680.4 102.96 680.4 107.712
L 680.4 141.768
Q 680.4 146.52 691.2864 146.52
z
" clip-path="url(#p7422ce4924)" style="fill: #e9e2f4; stroke: #7861a8; stroke-width: 1.1; stroke-linejoin: miter"/>
   </g>
   <g id="patch_8">
    <path d="M 791.0784 146.52
L 850.9536 146.52
Q 861.84 146.52 861.84 141.768
L 861.84 107.712
Q 861.84 102.96 850.9536 102.96
L 791.0784 102.96
Q 780.192 102.96 780.192 107.712
L 780.192 141.768
Q 780.192 146.52 791.0784 146.52
z
" clip-path="url(#p7422ce4924)" style="fill: #e9e2f4; stroke: #7861a8; stroke-width: 1.1; stroke-linejoin: miter"/>
   </g>
   <g id="patch_9">
    <path d="M 509.8464 233.64
L 660.4416 233.64
Q 671.328 233.64 671.328 228.888
L 671.328 194.832
Q 671.328 190.08 660.4416 190.08
L 509.8464 190.08
Q 498.96 190.08 498.96 194.832
L 498.96 228.888
Q 498.96 233.64 509.8464 233.64
z
" clip-path="url(#p7422ce4924)" style="fill: #fff7e8; stroke: #d9a441; stroke-width: 1.1; stroke-linejoin: miter"/>
   </g>
   <g id="patch_10">
    <path d="M 727.5744 233.64
L 869.0976 233.64
Q 879.984 233.64 879.984 228.888
L 879.984 194.832
Q 879.984 190.08 869.0976 190.08
L 727.5744 190.08
Q 716.688 190.08 716.688 194.832
L 716.688 228.888
Q 716.688 233.64 727.5744 233.64
z
" clip-path="url(#p7422ce4924)" style="fill: #e9e2f4; stroke: #7861a8; stroke-width: 1.1; stroke-linejoin: miter"/>
   </g>
   <g id="patch_11">
    <path d="M 688.555332 146.920133
Q 639.574807 168.300521 591.823885 189.144177
" clip-path="url(#p7422ce4924)" style="fill: none; stroke: #7d8e9e; stroke-width: 1.2; stroke-linecap: round"/>
    <path d="M 597.183174 189.423489
L 591.823885 189.144177
L 595.262908 185.024333
z
" clip-path="url(#p7422ce4924)" style="fill: #7d8e9e; stroke: #7d8e9e; stroke-width: 1.2; stroke-linecap: round"/>
   </g>
   <g id="patch_12">
    <path d="M 672.327448 211.86
Q 694.008181 211.86 714.347272 211.86
" clip-path="url(#p7422ce4924)" style="fill: none; stroke: #7d8e9e; stroke-width: 1.2; stroke-linecap: round"/>
    <path d="M 709.547272 209.46
L 714.347272 211.86
L 709.547272 214.26
z
" clip-path="url(#p7422ce4924)" style="fill: #7d8e9e; stroke: #7d8e9e; stroke-width: 1.2; stroke-linecap: round"/>
   </g>
   <g id="patch_13">
    <path d="M 237.6864 308.88
L 424.5696 308.88
Q 435.456 308.88 435.456 304.128
L 435.456 262.152
Q 435.456 257.4 424.5696 257.4
L 237.6864 257.4
Q 226.8 257.4 226.8 262.152
L 226.8 304.128
Q 226.8 308.88 237.6864 308.88
z
" clip-path="url(#p7422ce4924)" style="fill: #e9e2f4; stroke: #7861a8; stroke-width: 1.1; stroke-linejoin: miter"/>
   </g>
   <g id="patch_14">
    <path d="M 527.9904 308.88
L 669.5136 308.88
Q 680.4 308.88 680.4 304.128
L 680.4 262.152
Q 680.4 257.4 669.5136 257.4
L 527.9904 257.4
Q 517.104 257.4 517.104 262.152
L 517.104 304.128
Q 517.104 308.88 527.9904 308.88
z
" clip-path="url(#p7422ce4924)" style="fill: #fff0eb; stroke: #e4492c; stroke-width: 1.1; stroke-linejoin: miter"/>
   </g>
   <g id="patch_15">
    <path d="M 763.8624 308.88
L 869.0976 308.88
Q 879.984 308.88 879.984 304.128
L 879.984 262.152
Q 879.984 257.4 869.0976 257.4
L 763.8624 257.4
Q 752.976 257.4 752.976 262.152
L 752.976 304.128
Q 752.976 308.88 763.8624 308.88
z
" clip-path="url(#p7422ce4924)" style="fill: #edf3f8; stroke: #3576a8; stroke-width: 1.1; stroke-linejoin: miter"/>
   </g>
   <g id="patch_16">
    <path d="M 425.738927 151.240265
Q 381.024455 203.939463 337.177995 255.615648
" clip-path="url(#p7422ce4924)" style="fill: none; stroke: #7d8e9e; stroke-width: 1.2; stroke-linecap: round"/>
    <path d="M 342.113509 253.50835
L 337.177995 255.615648
L 338.453465 250.402858
z
" clip-path="url(#p7422ce4924)" style="fill: #7d8e9e; stroke: #7d8e9e; stroke-width: 1.2; stroke-linecap: round"/>
   </g>
   <g id="patch_17">
    <path d="M 797.340151 233.699277
Q 598.753796 245.519893 401.506711 257.260791
" clip-path="url(#p7422ce4924)" style="fill: none; stroke: #7d8e9e; stroke-width: 1.2; stroke-linecap: round"/>
    <path d="M 406.440834 259.371341
L 401.506711 257.260791
L 406.155625 254.579822
z
" clip-path="url(#p7422ce4924)" style="fill: #7d8e9e; stroke: #7d8e9e; stroke-width: 1.2; stroke-linecap: round"/>
   </g>
   <g id="patch_18">
    <path d="M 436.457663 283.14
Q 476.281222 283.14 514.76314 283.14
" clip-path="url(#p7422ce4924)" style="fill: none; stroke: #7d8e9e; stroke-width: 1.2; stroke-linecap: round"/>
    <path d="M 509.96314 280.74
L 514.76314 283.14
L 509.96314 285.54
z
" clip-path="url(#p7422ce4924)" style="fill: #7d8e9e; stroke: #7d8e9e; stroke-width: 1.2; stroke-linecap: round"/>
   </g>
   <g id="patch_19">
    <path d="M 681.39668 283.14
Q 716.686106 283.14 750.633891 283.14
" clip-path="url(#p7422ce4924)" style="fill: none; stroke: #7d8e9e; stroke-width: 1.2; stroke-linecap: round"/>
    <path d="M 745.833891 280.74
L 750.633891 283.14
L 745.833891 285.54
z
" clip-path="url(#p7422ce4924)" style="fill: #7d8e9e; stroke: #7d8e9e; stroke-width: 1.2; stroke-linecap: round"/>
   </g>
   <g id="text_1">
    <text style="font-weight: 700; font-size: 10px; font-family: 'DejaVu Sans'; text-anchor: middle; fill: #243447" x="108.864" y="125.519375" transform="rotate(-0 108.864 125.519375)">Input row</text>
   </g>
   <g id="text_2">
    <text style="font-size: 10px; font-family: 'DejaVu Sans'; fill: #243447" transform="translate(315.078062 119.920469)">Register</text>
    <text style="font-size: 10px; font-family: 'DejaVu Sans'; fill: #243447" transform="translate(319.4015 131.118281)">values</text>
   </g>
   <g id="text_3">
    <text style="font-weight: 700; font-size: 11px; font-family: 'DejaVu Sans'; text-anchor: start; fill: #243447" x="27.216" y="63.36" transform="rotate(-0 27.216 63.36)">Load once, retain values for normalization</text>
   </g>
   <g id="text_4">
    <text style="font-weight: 700; font-size: 11px; font-family: 'DejaVu Sans'; text-anchor: start; fill: #243447" x="480.816" y="63.36" transform="rotate(-0 480.816 63.36)">Hierarchical FP32 sum-of-squares</text>
   </g>
   <g id="text_5">
    <text style="font-weight: 700; font-size: 10px; font-family: 'DejaVu Sans'; text-anchor: middle; fill: #243447" x="521.64" y="127.499375" transform="rotate(-0 521.64 127.499375)">W0</text>
   </g>
   <g id="text_6">
    <text style="font-weight: 700; font-size: 10px; font-family: 'DejaVu Sans'; text-anchor: middle; fill: #243447" x="621.432" y="127.499375" transform="rotate(-0 621.432 127.499375)">W1</text>
   </g>
   <g id="text_7">
    <text style="font-weight: 700; font-size: 10px; font-family: 'DejaVu Sans'; text-anchor: middle; fill: #243447" x="721.224" y="127.499375" transform="rotate(-0 721.224 127.499375)">W2</text>
   </g>
   <g id="text_8">
    <text style="font-weight: 700; font-size: 10px; font-family: 'DejaVu Sans'; text-anchor: middle; fill: #243447" x="821.016" y="127.499375" transform="rotate(-0 821.016 127.499375)">W3</text>
   </g>
   <g id="text_9">
    <text style="font-size: 10px; font-family: 'DejaVu Sans'; text-anchor: middle; fill: #243447" x="585.144" y="214.619375" transform="rotate(-0 585.144 214.619375)">LDS partials</text>
   </g>
   <g id="text_10">
    <text style="font-size: 10px; font-family: 'DejaVu Sans'; text-anchor: middle; fill: #243447" x="798.336" y="214.619375" transform="rotate(-0 798.336 214.619375)">Wave 0 reduce</text>
   </g>
   <g id="text_11">
    <text style="font-size: 10px; font-family: 'DejaVu Sans'; fill: #243447" transform="translate(300.499094 280.300469)">rrms = rsqrt</text>
    <text style="font-size: 10px; font-family: 'DejaVu Sans'; fill: #243447" transform="translate(294.93425 291.498281)">(sum/N + eps)</text>
   </g>
   <g id="text_12">
    <text style="font-size: 10px; font-family: 'DejaVu Sans'; text-anchor: middle; fill: #243447" x="598.752" y="285.899375" transform="rotate(-0 598.752 285.899375)">× weight</text>
   </g>
   <g id="text_13">
    <text style="font-size: 10px; font-family: 'DejaVu Sans'; fill: #243447" transform="translate(799.112031 280.300469)">Output</text>
    <text style="font-size: 10px; font-family: 'DejaVu Sans'; fill: #243447" transform="translate(800.906562 291.498281)">+ rstd</text>
   </g>
   <g id="text_14">
    <text style="font-size: 10px; font-family: 'DejaVu Sans'; text-anchor: start; fill: #243447" x="27.216" y="376.2" transform="rotate(-0 27.216 376.2)">The same register-resident input values feed the output after the block reduction.</text>
   </g>
  </g>
  <g id="text_15">
   <text style="font-weight: 700; font-size: 19px; font-family: 'DejaVu Sans'; text-anchor: start; fill: #243447" x="36.288" y="28.297031" transform="rotate(-0 36.288 28.297031)">RMSNorm: one thread block per row</text>
  </g>
  <g id="text_16">
   <text style="font-size: 12px; font-family: 'DejaVu Sans'; text-anchor: start; fill: #526477" x="36.288" y="50.338125" transform="rotate(-0 36.288 50.338125)">128-bit vector loads · Wave64 partial reductions · FP32 rstd for backward</text>
  </g>
 </g>
 <defs>
  <clipPath id="p7422ce4924">
   <rect x="0" y="0" width="907.2" height="396"/>
  </clipPath>
 </defs>
</svg>
