<?xml version="1.0" encoding="utf-8" standalone="no"?>
<!DOCTYPE svg PUBLIC "-//W3C//DTD SVG 1.1//EN"
  "http://www.w3.org/Graphics/SVG/1.1/DTD/svg11.dtd">
<svg xmlns:xlink="http://www.w3.org/1999/xlink" width="907.2pt" height="748.8pt" viewBox="0 0 907.2 748.8" xmlns="http://www.w3.org/2000/svg" version="1.1">
 <metadata>
  <rdf:RDF xmlns:dc="http://purl.org/dc/elements/1.1/" xmlns:cc="http://creativecommons.org/ns#" xmlns:rdf="http://www.w3.org/1999/02/22-rdf-syntax-ns#">
   <cc:Work>
    <dc:type rdf:resource="http://purl.org/dc/dcmitype/StillImage"/>
    <dc:format>image/svg+xml</dc:format>
    <dc:creator>
     <cc:Agent>
      <dc:title>Matplotlib v3.10.9, https://matplotlib.org/</dc:title>
     </cc:Agent>
    </dc:creator>
   </cc:Work>
  </rdf:RDF>
 </metadata>
 <defs>
  <style type="text/css">*{stroke-linejoin: round; stroke-linecap: butt}</style>
 </defs>
 <g id="figure_1">
  <g id="patch_1">
   <path d="M 0 748.8
L 907.2 748.8
L 907.2 0
L 0 0
z
" style="fill: #ffffff"/>
  </g>
  <g id="axes_1">
   <g id="patch_2">
    <path d="M 195.048 666.432
L 503.57773 666.432
L 503.57773 108.576
L 195.048 108.576
z
" style="fill: #ffffff"/>
   </g>
   <g id="matplotlib.axis_1">
    <g id="xtick_1">
     <g id="line2d_1">
      <path d="M 195.048 666.432
L 195.048 108.576
" clip-path="url(#p5ec29b20de)" style="fill: none; stroke: #e4e8ed; stroke-width: 0.8; stroke-linecap: square"/>
     </g>
     <g id="line2d_2"/>
     <g id="text_1">
      <text style="font-size: 12px; font-family: 'DejaVu Sans'; text-anchor: middle; fill: #243447" x="195.048" y="683.550125" transform="rotate(-0 195.048 683.550125)">0×</text>
     </g>
    </g>
    <g id="xtick_2">
     <g id="line2d_3">
      <path d="M 291.463541 666.432
L 291.463541 108.576
" clip-path="url(#p5ec29b20de)" style="fill: none; stroke: #e4e8ed; stroke-width: 0.8; stroke-linecap: square"/>
     </g>
     <g id="line2d_4"/>
     <g id="text_2">
      <text style="font-size: 12px; font-family: 'DejaVu Sans'; text-anchor: middle; fill: #243447" x="291.463541" y="683.550125" transform="rotate(-0 291.463541 683.550125)">1×</text>
     </g>
    </g>
    <g id="xtick_3">
     <g id="line2d_5">
      <path d="M 387.879081 666.432
L 387.879081 108.576
" clip-path="url(#p5ec29b20de)" style="fill: none; stroke: #e4e8ed; stroke-width: 0.8; stroke-linecap: square"/>
     </g>
     <g id="line2d_6"/>
     <g id="text_3">
      <text style="font-size: 12px; font-family: 'DejaVu Sans'; text-anchor: middle; fill: #243447" x="387.879081" y="683.550125" transform="rotate(-0 387.879081 683.550125)">2×</text>
     </g>
    </g>
    <g id="xtick_4">
     <g id="line2d_7">
      <path d="M 484.294622 666.432
L 484.294622 108.576
" clip-path="url(#p5ec29b20de)" style="fill: none; stroke: #e4e8ed; stroke-width: 0.8; stroke-linecap: square"/>
     </g>
     <g id="line2d_8"/>
     <g id="text_4">
      <text style="font-size: 12px; font-family: 'DejaVu Sans'; text-anchor: middle; fill: #243447" x="484.294622" y="683.550125" transform="rotate(-0 484.294622 683.550125)">3×</text>
     </g>
    </g>
    <g id="text_5">
     <text style="font-size: 12px; font-family: 'DejaVu Sans'; text-anchor: middle; fill: #243447" x="349.312865" y="705.163875" transform="rotate(-0 349.312865 705.163875)">FlyDSL speedup</text>
    </g>
   </g>
   <g id="matplotlib.axis_2">
    <g id="ytick_1">
     <g id="line2d_9"/>
     <g id="text_6">
      <text style="font-size: 11px; font-family: 'DejaVu Sans'; text-anchor: end; fill: #243447" x="187.048" y="136.05983" transform="rotate(-0 187.048 136.05983)">32 × 4096 × 4096</text>
     </g>
    </g>
    <g id="ytick_2">
     <g id="line2d_10"/>
     <g id="text_7">
      <text style="font-size: 11px; font-family: 'DejaVu Sans'; text-anchor: end; fill: #243447" x="187.048" y="165.190692" transform="rotate(-0 187.048 165.190692)">32 × 14336 × 4096</text>
     </g>
    </g>
    <g id="ytick_3">
     <g id="line2d_11"/>
     <g id="text_8">
      <text style="font-size: 11px; font-family: 'DejaVu Sans'; text-anchor: end; fill: #243447" x="187.048" y="194.321553" transform="rotate(-0 187.048 194.321553)">32 × 28672 × 4096</text>
     </g>
    </g>
    <g id="ytick_4">
     <g id="line2d_12"/>
     <g id="text_9">
      <text style="font-size: 11px; font-family: 'DejaVu Sans'; text-anchor: end; fill: #243447" x="187.048" y="223.452415" transform="rotate(-0 187.048 223.452415)">64 × 4096 × 4096</text>
     </g>
    </g>
    <g id="ytick_5">
     <g id="line2d_13"/>
     <g id="text_10">
      <text style="font-size: 11px; font-family: 'DejaVu Sans'; text-anchor: end; fill: #243447" x="187.048" y="252.583276" transform="rotate(-0 187.048 252.583276)">128 × 4096 × 4096</text>
     </g>
    </g>
    <g id="ytick_6">
     <g id="line2d_14"/>
     <g id="text_11">
      <text style="font-size: 11px; font-family: 'DejaVu Sans'; text-anchor: end; fill: #243447" x="187.048" y="281.714138" transform="rotate(-0 187.048 281.714138)">256 × 4096 × 4096</text>
     </g>
    </g>
    <g id="ytick_7">
     <g id="line2d_15"/>
     <g id="text_12">
      <text style="font-size: 11px; font-family: 'DejaVu Sans'; text-anchor: end; fill: #243447" x="187.048" y="310.845" transform="rotate(-0 187.048 310.845)">512 × 4096 × 4096</text>
     </g>
    </g>
    <g id="ytick_8">
     <g id="line2d_16"/>
     <g id="text_13">
      <text style="font-size: 11px; font-family: 'DejaVu Sans'; text-anchor: end; fill: #243447" x="187.048" y="339.975861" transform="rotate(-0 187.048 339.975861)">1024 × 4096 × 4096</text>
     </g>
    </g>
    <g id="ytick_9">
     <g id="line2d_17"/>
     <g id="text_14">
      <text style="font-size: 11px; font-family: 'DejaVu Sans'; text-anchor: end; fill: #243447" x="187.048" y="369.106723" transform="rotate(-0 187.048 369.106723)">2048 × 4096 × 4096</text>
     </g>
    </g>
    <g id="ytick_10">
     <g id="line2d_18"/>
     <g id="text_15">
      <text style="font-size: 11px; font-family: 'DejaVu Sans'; text-anchor: end; fill: #243447" x="187.048" y="398.237584" transform="rotate(-0 187.048 398.237584)">4096 × 256 × 4096</text>
     </g>
    </g>
    <g id="ytick_11">
     <g id="line2d_19"/>
     <g id="text_16">
      <text style="font-size: 11px; font-family: 'DejaVu Sans'; text-anchor: end; fill: #243447" x="187.048" y="427.368446" transform="rotate(-0 187.048 427.368446)">4096 × 4096 × 256</text>
     </g>
    </g>
    <g id="ytick_12">
     <g id="line2d_20"/>
     <g id="text_17">
      <text style="font-size: 11px; font-family: 'DejaVu Sans'; text-anchor: end; fill: #243447" x="187.048" y="456.499308" transform="rotate(-0 187.048 456.499308)">4096 × 4096 × 512</text>
     </g>
    </g>
    <g id="ytick_13">
     <g id="line2d_21"/>
     <g id="text_18">
      <text style="font-size: 11px; font-family: 'DejaVu Sans'; text-anchor: end; fill: #243447" x="187.048" y="485.630169" transform="rotate(-0 187.048 485.630169)">4096 × 4096 × 1024</text>
     </g>
    </g>
    <g id="ytick_14">
     <g id="line2d_22"/>
     <g id="text_19">
      <text style="font-size: 11px; font-family: 'DejaVu Sans'; text-anchor: end; fill: #243447" x="187.048" y="514.761031" transform="rotate(-0 187.048 514.761031)">4096 × 4096 × 2048</text>
     </g>
    </g>
    <g id="ytick_15">
     <g id="line2d_23"/>
     <g id="text_20">
      <text style="font-size: 11px; font-family: 'DejaVu Sans'; text-anchor: end; fill: #243447" x="187.048" y="543.891893" transform="rotate(-0 187.048 543.891893)">4096 × 4096 × 4096</text>
     </g>
    </g>
    <g id="ytick_16">
     <g id="line2d_24"/>
     <g id="text_21">
      <text style="font-size: 11px; font-family: 'DejaVu Sans'; text-anchor: end; fill: #243447" x="187.048" y="573.022754" transform="rotate(-0 187.048 573.022754)">4096 × 4096 × 8192</text>
     </g>
    </g>
    <g id="ytick_17">
     <g id="line2d_25"/>
     <g id="text_22">
      <text style="font-size: 11px; font-family: 'DejaVu Sans'; text-anchor: end; fill: #243447" x="187.048" y="602.153616" transform="rotate(-0 187.048 602.153616)">8192 × 8192 × 8192</text>
     </g>
    </g>
    <g id="ytick_18">
     <g id="line2d_26"/>
     <g id="text_23">
      <text style="font-weight: 700; font-size: 11px; font-family: 'DejaVu Sans'; text-anchor: end; fill: #243447" x="187.048" y="650.219537" transform="rotate(-0 187.048 650.219537)">Geometric mean</text>
     </g>
    </g>
   </g>
   <g id="patch_3">
    <path d="M 195.048 124.015357
L 410.057736 124.015357
L 410.057736 139.746022
L 195.048 139.746022
z
" clip-path="url(#p5ec29b20de)" style="fill: #e4492c"/>
   </g>
   <g id="patch_4">
    <path d="M 195.048 153.146218
L 391.238862 153.146218
L 391.238862 168.876884
L 195.048 168.876884
z
" clip-path="url(#p5ec29b20de)" style="fill: #e4492c"/>
   </g>
   <g id="patch_5">
    <path d="M 195.048 182.27708
L 339.617984 182.27708
L 339.617984 198.007745
L 195.048 198.007745
z
" clip-path="url(#p5ec29b20de)" style="fill: #e4492c"/>
   </g>
   <g id="patch_6">
    <path d="M 195.048 211.407942
L 380.894433 211.407942
L 380.894433 227.138607
L 195.048 227.138607
z
" clip-path="url(#p5ec29b20de)" style="fill: #e4492c"/>
   </g>
   <g id="patch_7">
    <path d="M 195.048 240.538803
L 362.60916 240.538803
L 362.60916 256.269468
L 195.048 256.269468
z
" clip-path="url(#p5ec29b20de)" style="fill: #e4492c"/>
   </g>
   <g id="patch_8">
    <path d="M 195.048 269.669665
L 330.549145 269.669665
L 330.549145 285.40033
L 195.048 285.40033
z
" clip-path="url(#p5ec29b20de)" style="fill: #e4492c"/>
   </g>
   <g id="patch_9">
    <path d="M 195.048 298.800526
L 328.262243 298.800526
L 328.262243 314.531192
L 195.048 314.531192
z
" clip-path="url(#p5ec29b20de)" style="fill: #e4492c"/>
   </g>
   <g id="patch_10">
    <path d="M 195.048 327.931388
L 334.852517 327.931388
L 334.852517 343.662053
L 195.048 343.662053
z
" clip-path="url(#p5ec29b20de)" style="fill: #e4492c"/>
   </g>
   <g id="patch_11">
    <path d="M 195.048 357.06225
L 328.185954 357.06225
L 328.185954 372.792915
L 195.048 372.792915
z
" clip-path="url(#p5ec29b20de)" style="fill: #e4492c"/>
   </g>
   <g id="patch_12">
    <path d="M 195.048 386.193111
L 326.086658 386.193111
L 326.086658 401.923777
L 195.048 401.923777
z
" clip-path="url(#p5ec29b20de)" style="fill: #e4492c"/>
   </g>
   <g id="patch_13">
    <path d="M 195.048 415.323973
L 322.100847 415.323973
L 322.100847 431.054638
L 195.048 431.054638
z
" clip-path="url(#p5ec29b20de)" style="fill: #e4492c"/>
   </g>
   <g id="patch_14">
    <path d="M 195.048 444.454834
L 321.347912 444.454834
L 321.347912 460.1855
L 195.048 460.1855
z
" clip-path="url(#p5ec29b20de)" style="fill: #e4492c"/>
   </g>
   <g id="patch_15">
    <path d="M 195.048 473.585696
L 327.201631 473.585696
L 327.201631 489.316361
L 195.048 489.316361
z
" clip-path="url(#p5ec29b20de)" style="fill: #e4492c"/>
   </g>
   <g id="patch_16">
    <path d="M 195.048 502.716558
L 337.120819 502.716558
L 337.120819 518.447223
L 195.048 518.447223
z
" clip-path="url(#p5ec29b20de)" style="fill: #e4492c"/>
   </g>
   <g id="patch_17">
    <path d="M 195.048 531.847419
L 349.288066 531.847419
L 349.288066 547.578085
L 195.048 547.578085
z
" clip-path="url(#p5ec29b20de)" style="fill: #e4492c"/>
   </g>
   <g id="patch_18">
    <path d="M 195.048 560.978281
L 354.19674 560.978281
L 354.19674 576.708946
L 195.048 576.708946
z
" clip-path="url(#p5ec29b20de)" style="fill: #e4492c"/>
   </g>
   <g id="patch_19">
    <path d="M 195.048 590.109143
L 392.426386 590.109143
L 392.426386 605.839808
L 195.048 605.839808
z
" clip-path="url(#p5ec29b20de)" style="fill: #e4492c"/>
   </g>
   <g id="patch_20">
    <path d="M 195.048 638.175064
L 346.949114 638.175064
L 346.949114 653.90573
L 195.048 653.90573
z
" clip-path="url(#p5ec29b20de)" style="fill: #3576a8"/>
   </g>
   <g id="line2d_27">
    <path d="M 291.463541 666.432
L 291.463541 108.576
" clip-path="url(#p5ec29b20de)" style="fill: none; stroke-dasharray: 4.8,4.8; stroke-dashoffset: 0; stroke: #243447; stroke-width: 1.2"/>
   </g>
   <g id="text_24">
    <text style="font-size: 11px; font-family: 'DejaVu Sans'; text-anchor: start; fill: #243447" x="413.914357" y="134.916002" transform="rotate(-0 413.914357 134.916002)">2.23×</text>
   </g>
   <g id="text_25">
    <text style="font-size: 11px; font-family: 'DejaVu Sans'; text-anchor: start; fill: #243447" x="395.095484" y="164.046863" transform="rotate(-0 395.095484 164.046863)">2.03×</text>
   </g>
   <g id="text_26">
    <text style="font-size: 11px; font-family: 'DejaVu Sans'; text-anchor: start; fill: #243447" x="343.474605" y="193.177725" transform="rotate(-0 343.474605 193.177725)">1.50×</text>
   </g>
   <g id="text_27">
    <text style="font-size: 11px; font-family: 'DejaVu Sans'; text-anchor: start; fill: #243447" x="384.751054" y="222.308587" transform="rotate(-0 384.751054 222.308587)">1.93×</text>
   </g>
   <g id="text_28">
    <text style="font-size: 11px; font-family: 'DejaVu Sans'; text-anchor: start; fill: #243447" x="366.465781" y="251.439448" transform="rotate(-0 366.465781 251.439448)">1.74×</text>
   </g>
   <g id="text_29">
    <text style="font-size: 11px; font-family: 'DejaVu Sans'; text-anchor: start; fill: #243447" x="334.405767" y="280.57031" transform="rotate(-0 334.405767 280.57031)">1.41×</text>
   </g>
   <g id="text_30">
    <text style="font-size: 11px; font-family: 'DejaVu Sans'; text-anchor: start; fill: #243447" x="332.118865" y="309.701172" transform="rotate(-0 332.118865 309.701172)">1.38×</text>
   </g>
   <g id="text_31">
    <text style="font-size: 11px; font-family: 'DejaVu Sans'; text-anchor: start; fill: #243447" x="338.709138" y="338.832033" transform="rotate(-0 338.709138 338.832033)">1.45×</text>
   </g>
   <g id="text_32">
    <text style="font-size: 11px; font-family: 'DejaVu Sans'; text-anchor: start; fill: #243447" x="332.042575" y="367.962895" transform="rotate(-0 332.042575 367.962895)">1.38×</text>
   </g>
   <g id="text_33">
    <text style="font-size: 11px; font-family: 'DejaVu Sans'; text-anchor: start; fill: #243447" x="329.94328" y="397.093756" transform="rotate(-0 329.94328 397.093756)">1.36×</text>
   </g>
   <g id="text_34">
    <text style="font-size: 11px; font-family: 'DejaVu Sans'; text-anchor: start; fill: #243447" x="325.957469" y="426.224618" transform="rotate(-0 325.957469 426.224618)">1.32×</text>
   </g>
   <g id="text_35">
    <text style="font-size: 11px; font-family: 'DejaVu Sans'; text-anchor: start; fill: #243447" x="325.204533" y="455.35548" transform="rotate(-0 325.204533 455.35548)">1.31×</text>
   </g>
   <g id="text_36">
    <text style="font-size: 11px; font-family: 'DejaVu Sans'; text-anchor: start; fill: #243447" x="331.058253" y="484.486341" transform="rotate(-0 331.058253 484.486341)">1.37×</text>
   </g>
   <g id="text_37">
    <text style="font-size: 11px; font-family: 'DejaVu Sans'; text-anchor: start; fill: #243447" x="340.97744" y="513.617203" transform="rotate(-0 340.97744 513.617203)">1.47×</text>
   </g>
   <g id="text_38">
    <text style="font-size: 11px; font-family: 'DejaVu Sans'; text-anchor: start; fill: #243447" x="353.144688" y="542.748064" transform="rotate(-0 353.144688 542.748064)">1.60×</text>
   </g>
   <g id="text_39">
    <text style="font-size: 11px; font-family: 'DejaVu Sans'; text-anchor: start; fill: #243447" x="358.053362" y="571.878926" transform="rotate(-0 358.053362 571.878926)">1.65×</text>
   </g>
   <g id="text_40">
    <text style="font-size: 11px; font-family: 'DejaVu Sans'; text-anchor: start; fill: #243447" x="396.283008" y="601.009788" transform="rotate(-0 396.283008 601.009788)">2.05×</text>
   </g>
   <g id="text_41">
    <text style="font-size: 11px; font-family: 'DejaVu Sans'; text-anchor: start; fill: #243447" x="350.805736" y="649.075709" transform="rotate(-0 350.805736 649.075709)">1.58×</text>
   </g>
   <g id="text_42">
    <text style="font-weight: 700; font-size: 15px; font-family: 'DejaVu Sans'; text-anchor: start; fill: #243447" x="195.048" y="94.576" transform="rotate(-0 195.048 94.576)">MXFP8</text>
   </g>
  </g>
  <g id="axes_2">
   <g id="patch_21">
    <path d="M 571.45427 666.432
L 879.984 666.432
L 879.984 108.576
L 571.45427 108.576
z
" style="fill: #ffffff"/>
   </g>
   <g id="matplotlib.axis_3">
    <g id="xtick_5">
     <g id="line2d_28">
      <path d="M 571.45427 666.432
L 571.45427 108.576
" clip-path="url(#pdb8748c52e)" style="fill: none; stroke: #e4e8ed; stroke-width: 0.8; stroke-linecap: square"/>
     </g>
     <g id="line2d_29"/>
     <g id="text_43">
      <text style="font-size: 12px; font-family: 'DejaVu Sans'; text-anchor: middle; fill: #243447" x="571.45427" y="683.550125" transform="rotate(-0 571.45427 683.550125)">0×</text>
     </g>
    </g>
    <g id="xtick_6">
     <g id="line2d_30">
      <path d="M 667.869811 666.432
L 667.869811 108.576
" clip-path="url(#pdb8748c52e)" style="fill: none; stroke: #e4e8ed; stroke-width: 0.8; stroke-linecap: square"/>
     </g>
     <g id="line2d_31"/>
     <g id="text_44">
      <text style="font-size: 12px; font-family: 'DejaVu Sans'; text-anchor: middle; fill: #243447" x="667.869811" y="683.550125" transform="rotate(-0 667.869811 683.550125)">1×</text>
     </g>
    </g>
    <g id="xtick_7">
     <g id="line2d_32">
      <path d="M 764.285351 666.432
L 764.285351 108.576
" clip-path="url(#pdb8748c52e)" style="fill: none; stroke: #e4e8ed; stroke-width: 0.8; stroke-linecap: square"/>
     </g>
     <g id="line2d_33"/>
     <g id="text_45">
      <text style="font-size: 12px; font-family: 'DejaVu Sans'; text-anchor: middle; fill: #243447" x="764.285351" y="683.550125" transform="rotate(-0 764.285351 683.550125)">2×</text>
     </g>
    </g>
    <g id="xtick_8">
     <g id="line2d_34">
      <path d="M 860.700892 666.432
L 860.700892 108.576
" clip-path="url(#pdb8748c52e)" style="fill: none; stroke: #e4e8ed; stroke-width: 0.8; stroke-linecap: square"/>
     </g>
     <g id="line2d_35"/>
     <g id="text_46">
      <text style="font-size: 12px; font-family: 'DejaVu Sans'; text-anchor: middle; fill: #243447" x="860.700892" y="683.550125" transform="rotate(-0 860.700892 683.550125)">3×</text>
     </g>
    </g>
    <g id="text_47">
     <text style="font-size: 12px; font-family: 'DejaVu Sans'; text-anchor: middle; fill: #243447" x="725.719135" y="705.163875" transform="rotate(-0 725.719135 705.163875)">FlyDSL speedup</text>
    </g>
   </g>
   <g id="matplotlib.axis_4">
    <g id="ytick_19">
     <g id="line2d_36"/>
    </g>
    <g id="ytick_20">
     <g id="line2d_37"/>
    </g>
    <g id="ytick_21">
     <g id="line2d_38"/>
    </g>
    <g id="ytick_22">
     <g id="line2d_39"/>
    </g>
    <g id="ytick_23">
     <g id="line2d_40"/>
    </g>
    <g id="ytick_24">
     <g id="line2d_41"/>
    </g>
    <g id="ytick_25">
     <g id="line2d_42"/>
    </g>
    <g id="ytick_26">
     <g id="line2d_43"/>
    </g>
    <g id="ytick_27">
     <g id="line2d_44"/>
    </g>
    <g id="ytick_28">
     <g id="line2d_45"/>
    </g>
    <g id="ytick_29">
     <g id="line2d_46"/>
    </g>
    <g id="ytick_30">
     <g id="line2d_47"/>
    </g>
    <g id="ytick_31">
     <g id="line2d_48"/>
    </g>
    <g id="ytick_32">
     <g id="line2d_49"/>
    </g>
    <g id="ytick_33">
     <g id="line2d_50"/>
    </g>
    <g id="ytick_34">
     <g id="line2d_51"/>
    </g>
    <g id="ytick_35">
     <g id="line2d_52"/>
    </g>
    <g id="ytick_36">
     <g id="line2d_53"/>
    </g>
   </g>
   <g id="patch_22">
    <path d="M 571.45427 124.015357
L 815.184926 124.015357
L 815.184926 139.746022
L 571.45427 139.746022
z
" clip-path="url(#pdb8748c52e)" style="fill: #e4492c"/>
   </g>
   <g id="patch_23">
    <path d="M 571.45427 153.146218
L 856.975943 153.146218
L 856.975943 168.876884
L 571.45427 168.876884
z
" clip-path="url(#pdb8748c52e)" style="fill: #e4492c"/>
   </g>
   <g id="patch_24">
    <path d="M 571.45427 182.27708
L 801.277629 182.27708
L 801.277629 198.007745
L 571.45427 198.007745
z
" clip-path="url(#pdb8748c52e)" style="fill: #e4492c"/>
   </g>
   <g id="patch_25">
    <path d="M 571.45427 211.407942
L 749.322707 211.407942
L 749.322707 227.138607
L 571.45427 227.138607
z
" clip-path="url(#pdb8748c52e)" style="fill: #e4492c"/>
   </g>
   <g id="patch_26">
    <path d="M 571.45427 240.538803
L 780.337458 240.538803
L 780.337458 256.269468
L 571.45427 256.269468
z
" clip-path="url(#pdb8748c52e)" style="fill: #e4492c"/>
   </g>
   <g id="patch_27">
    <path d="M 571.45427 269.669665
L 715.222797 269.669665
L 715.222797 285.40033
L 571.45427 285.40033
z
" clip-path="url(#pdb8748c52e)" style="fill: #e4492c"/>
   </g>
   <g id="patch_28">
    <path d="M 571.45427 298.800526
L 731.8623 298.800526
L 731.8623 314.531192
L 571.45427 314.531192
z
" clip-path="url(#pdb8748c52e)" style="fill: #e4492c"/>
   </g>
   <g id="patch_29">
    <path d="M 571.45427 327.931388
L 720.469884 327.931388
L 720.469884 343.662053
L 571.45427 343.662053
z
" clip-path="url(#pdb8748c52e)" style="fill: #e4492c"/>
   </g>
   <g id="patch_30">
    <path d="M 571.45427 357.06225
L 714.253165 357.06225
L 714.253165 372.792915
L 571.45427 372.792915
z
" clip-path="url(#pdb8748c52e)" style="fill: #e4492c"/>
   </g>
   <g id="patch_31">
    <path d="M 571.45427 386.193111
L 703.32511 386.193111
L 703.32511 401.923777
L 571.45427 401.923777
z
" clip-path="url(#pdb8748c52e)" style="fill: #e4492c"/>
   </g>
   <g id="patch_32">
    <path d="M 571.45427 415.323973
L 730.537104 415.323973
L 730.537104 431.054638
L 571.45427 431.054638
z
" clip-path="url(#pdb8748c52e)" style="fill: #e4492c"/>
   </g>
   <g id="patch_33">
    <path d="M 571.45427 444.454834
L 721.776162 444.454834
L 721.776162 460.1855
L 571.45427 460.1855
z
" clip-path="url(#pdb8748c52e)" style="fill: #e4492c"/>
   </g>
   <g id="patch_34">
    <path d="M 571.45427 473.585696
L 710.014641 473.585696
L 710.014641 489.316361
L 571.45427 489.316361
z
" clip-path="url(#pdb8748c52e)" style="fill: #e4492c"/>
   </g>
   <g id="patch_35">
    <path d="M 571.45427 502.716558
L 706.855459 502.716558
L 706.855459 518.447223
L 571.45427 518.447223
z
" clip-path="url(#pdb8748c52e)" style="fill: #e4492c"/>
   </g>
   <g id="patch_36">
    <path d="M 571.45427 531.847419
L 701.633724 531.847419
L 701.633724 547.578085
L 571.45427 547.578085
z
" clip-path="url(#pdb8748c52e)" style="fill: #e4492c"/>
   </g>
   <g id="patch_37">
    <path d="M 571.45427 560.978281
L 697.737557 560.978281
L 697.737557 576.708946
L 571.45427 576.708946
z
" clip-path="url(#pdb8748c52e)" style="fill: #e4492c"/>
   </g>
   <g id="patch_38">
    <path d="M 571.45427 590.109143
L 700.269773 590.109143
L 700.269773 605.839808
L 571.45427 605.839808
z
" clip-path="url(#pdb8748c52e)" style="fill: #e4492c"/>
   </g>
   <g id="patch_39">
    <path d="M 571.45427 638.175064
L 733.475103 638.175064
L 733.475103 653.90573
L 571.45427 653.90573
z
" clip-path="url(#pdb8748c52e)" style="fill: #3576a8"/>
   </g>
   <g id="line2d_54">
    <path d="M 667.869811 666.432
L 667.869811 108.576
" clip-path="url(#pdb8748c52e)" style="fill: none; stroke-dasharray: 4.8,4.8; stroke-dashoffset: 0; stroke: #243447; stroke-width: 1.2"/>
   </g>
   <g id="text_48">
    <text style="font-size: 11px; font-family: 'DejaVu Sans'; text-anchor: start; fill: #243447" x="819.041548" y="134.916002" transform="rotate(-0 819.041548 134.916002)">2.53×</text>
   </g>
   <g id="text_49">
    <text style="font-size: 11px; font-family: 'DejaVu Sans'; text-anchor: start; fill: #243447" x="860.832565" y="164.046863" transform="rotate(-0 860.832565 164.046863)">2.96×</text>
   </g>
   <g id="text_50">
    <text style="font-size: 11px; font-family: 'DejaVu Sans'; text-anchor: start; fill: #243447" x="805.13425" y="193.177725" transform="rotate(-0 805.13425 193.177725)">2.38×</text>
   </g>
   <g id="text_51">
    <text style="font-size: 11px; font-family: 'DejaVu Sans'; text-anchor: start; fill: #243447" x="753.179328" y="222.308587" transform="rotate(-0 753.179328 222.308587)">1.84×</text>
   </g>
   <g id="text_52">
    <text style="font-size: 11px; font-family: 'DejaVu Sans'; text-anchor: start; fill: #243447" x="784.19408" y="251.439448" transform="rotate(-0 784.19408 251.439448)">2.17×</text>
   </g>
   <g id="text_53">
    <text style="font-size: 11px; font-family: 'DejaVu Sans'; text-anchor: start; fill: #243447" x="719.079418" y="280.57031" transform="rotate(-0 719.079418 280.57031)">1.49×</text>
   </g>
   <g id="text_54">
    <text style="font-size: 11px; font-family: 'DejaVu Sans'; text-anchor: start; fill: #243447" x="735.718922" y="309.701172" transform="rotate(-0 735.718922 309.701172)">1.66×</text>
   </g>
   <g id="text_55">
    <text style="font-size: 11px; font-family: 'DejaVu Sans'; text-anchor: start; fill: #243447" x="724.326506" y="338.832033" transform="rotate(-0 724.326506 338.832033)">1.55×</text>
   </g>
   <g id="text_56">
    <text style="font-size: 11px; font-family: 'DejaVu Sans'; text-anchor: start; fill: #243447" x="718.109787" y="367.962895" transform="rotate(-0 718.109787 367.962895)">1.48×</text>
   </g>
   <g id="text_57">
    <text style="font-size: 11px; font-family: 'DejaVu Sans'; text-anchor: start; fill: #243447" x="707.181732" y="397.093756" transform="rotate(-0 707.181732 397.093756)">1.37×</text>
   </g>
   <g id="text_58">
    <text style="font-size: 11px; font-family: 'DejaVu Sans'; text-anchor: start; fill: #243447" x="734.393726" y="426.224618" transform="rotate(-0 734.393726 426.224618)">1.65×</text>
   </g>
   <g id="text_59">
    <text style="font-size: 11px; font-family: 'DejaVu Sans'; text-anchor: start; fill: #243447" x="725.632783" y="455.35548" transform="rotate(-0 725.632783 455.35548)">1.56×</text>
   </g>
   <g id="text_60">
    <text style="font-size: 11px; font-family: 'DejaVu Sans'; text-anchor: start; fill: #243447" x="713.871262" y="484.486341" transform="rotate(-0 713.871262 484.486341)">1.44×</text>
   </g>
   <g id="text_61">
    <text style="font-size: 11px; font-family: 'DejaVu Sans'; text-anchor: start; fill: #243447" x="710.71208" y="513.617203" transform="rotate(-0 710.71208 513.617203)">1.40×</text>
   </g>
   <g id="text_62">
    <text style="font-size: 11px; font-family: 'DejaVu Sans'; text-anchor: start; fill: #243447" x="705.490345" y="542.748064" transform="rotate(-0 705.490345 542.748064)">1.35×</text>
   </g>
   <g id="text_63">
    <text style="font-size: 11px; font-family: 'DejaVu Sans'; text-anchor: start; fill: #243447" x="701.594178" y="571.878926" transform="rotate(-0 701.594178 571.878926)">1.31×</text>
   </g>
   <g id="text_64">
    <text style="font-size: 11px; font-family: 'DejaVu Sans'; text-anchor: start; fill: #243447" x="704.126394" y="601.009788" transform="rotate(-0 704.126394 601.009788)">1.34×</text>
   </g>
   <g id="text_65">
    <text style="font-size: 11px; font-family: 'DejaVu Sans'; text-anchor: start; fill: #243447" x="737.331725" y="649.075709" transform="rotate(-0 737.331725 649.075709)">1.68×</text>
   </g>
   <g id="text_66">
    <text style="font-weight: 700; font-size: 15px; font-family: 'DejaVu Sans'; text-anchor: start; fill: #243447" x="571.45427" y="94.576" transform="rotate(-0 571.45427 94.576)">MXFP4</text>
   </g>
  </g>
  <g id="text_67">
   <text style="font-weight: 700; font-size: 19px; font-family: 'DejaVu Sans'; text-anchor: start; fill: #243447" x="36.288" y="40.645031" transform="rotate(-0 36.288 40.645031)">MXFP scaled GEMM: low-precision performance across shapes</text>
  </g>
  <g id="text_68">
   <text style="font-size: 12px; font-family: 'DejaVu Sans'; text-anchor: start; fill: #526477" x="36.288" y="62.686125" transform="rotate(-0 36.288 62.686125)">MI355X · NT layout · speedup over ATen · geometric means include all 17 shapes</text>
  </g>
  <g id="text_69">
   <text style="font-size: 11px; font-family: 'DejaVu Sans'; text-anchor: start; fill: #243447" x="36.288" y="730.08" transform="rotate(-0 36.288 730.08)">Shape labels: M × N × K · dashed line = ATen</text>
  </g>
 </g>
 <defs>
  <clipPath id="p5ec29b20de">
   <rect x="195.048" y="108.576" width="308.52973" height="557.856"/>
  </clipPath>
  <clipPath id="pdb8748c52e">
   <rect x="571.45427" y="108.576" width="308.52973" height="557.856"/>
  </clipPath>
 </defs>
</svg>
